<svg width="169" height="33" viewBox="0 0 169 33" fill="none" xmlns="http://www.w3.org/2000/svg">
<path d="M17.6405 0.917001V13.8955C17.6405 14.4075 17.2126 14.8151 16.6991 14.8151H14.8163C14.2921 14.8151 13.8749 14.3971 13.8749 13.8955V5.07597C13.8749 4.41764 13.1903 3.9683 12.5698 4.21909L0.588374 9.02594C0.23535 9.17223 0 9.50662 0 9.88281V31.0747C0 31.5868 0.427909 31.9943 0.941399 31.9943H12.9228C13.447 31.9943 13.8642 31.5763 13.8642 31.0747V22.9762C13.8642 22.4642 14.2921 22.0567 14.8056 22.0567H16.6884C17.2126 22.0567 17.6298 22.4747 17.6298 22.9762V31.0747C17.6298 31.5868 18.0577 31.9943 18.5712 31.9943H30.5527C31.0769 31.9943 31.4941 31.5763 31.4941 31.0747V5.73429C31.4941 5.35811 31.2587 5.02372 30.9057 4.87742L18.9243 0.070578C18.3252 -0.180214 17.6405 0.269122 17.6405 0.917001Z" fill="#3ECFAF"/>
<path d="M64.047 27.9584V31.2082C64.047 31.6158 63.7047 31.9502 63.2875 31.9502H48.6316C48.2144 31.9502 47.8721 31.6158 47.8721 31.2082V8.48021C47.8721 8.07267 48.2144 7.73828 48.6316 7.73828H52.3544C52.7716 7.73828 53.114 8.07267 53.114 8.48021V27.206H63.2875C63.7047 27.2165 64.047 27.5404 64.047 27.9584Z" fill="#012D26"/>
<path d="M84.3295 28.1814V31.2954C84.3295 31.6611 84.03 31.9537 83.6555 31.9537H81.8476C79.8579 31.9537 78.7774 31.3058 78.4564 29.8011C78.4244 29.6548 78.2211 29.613 78.1355 29.7384C77.1727 31.3163 75.1829 32.3299 72.4657 32.3299C68.4969 32.3299 65.9829 30.1877 65.9829 26.8647C65.9829 23.479 68.6039 21.3995 73.6318 21.3995H77.7397V20.8771C77.7397 18.9439 76.7448 18.0452 74.6588 18.0452C73.1076 18.0452 71.6634 18.5781 70.4759 19.5708C70.1978 19.8007 69.7806 19.8112 69.5239 19.5499L67.5234 17.4914C67.2773 17.2406 67.2666 16.833 67.5127 16.5927C69.2778 14.8581 71.9843 13.834 75.0546 13.834C79.9113 13.834 82.5965 16.3942 82.5965 20.6785V27.4185C82.5965 28.0037 82.7783 28.1814 83.2704 28.1814H84.3295ZM77.7397 25.0674V24.5135H74.1346C71.8988 24.5135 70.9467 25.2032 70.9467 26.593C70.9467 27.941 71.8667 28.7039 73.6746 28.7039C76.1457 28.7039 77.7397 27.2514 77.7397 25.0674Z" fill="#012D26"/>
<path d="M108.583 8.4807V31.2087C108.583 31.6163 108.241 31.9506 107.823 31.9506H104.133C103.715 31.9506 103.373 31.6163 103.373 31.2087V21.919H93.1568C92.7396 21.919 92.3973 22.2534 92.3973 22.6609V31.2087C92.3973 31.6163 92.0549 31.9506 91.6377 31.9506H87.9149C87.4977 31.9506 87.1554 31.6163 87.1554 31.2087V8.4807C87.1554 8.07316 87.4977 7.73877 87.9149 7.73877H91.6377C92.0549 7.73877 92.3973 8.07316 92.3973 8.4807V17.2166H102.614C103.031 17.2166 103.373 16.8822 103.373 16.4747V8.4807C103.373 8.07316 103.715 7.73877 104.133 7.73877H107.823C108.251 7.73877 108.583 8.07316 108.583 8.4807Z" fill="#012D26"/>
<path d="M149.475 14.9837V31.2852C149.475 31.6509 149.165 31.954 148.79 31.954H145.239C144.864 31.954 144.554 31.6509 144.554 31.2852V29.3625C143.559 31.233 141.398 32.4451 138.745 32.4451C134.958 32.4451 132.829 30.0626 132.829 25.8723V14.9837C132.829 14.618 133.14 14.3149 133.514 14.3149H137.173C137.547 14.3149 137.857 14.618 137.857 14.9837V24.587C137.857 26.865 138.606 27.9727 140.692 27.9727C142.992 27.9727 144.447 26.656 144.447 24.2735V14.9837C144.447 14.618 144.757 14.3149 145.132 14.3149H148.79C149.175 14.3149 149.475 14.618 149.475 14.9837Z" fill="#012D26"/>
<path d="M152.741 28.7982L154.335 26.6978C154.581 26.3739 155.052 26.3007 155.372 26.5515C156.806 27.6592 158.796 28.3593 160.764 28.3593C162.54 28.3593 163.492 27.7741 163.492 26.8755C163.492 26.1126 162.85 25.6319 161.331 25.2871L158.325 24.5974C154.538 23.6988 153.051 21.9641 153.051 19.5502C153.051 16.1959 155.886 13.8447 160.668 13.8447C163.535 13.8447 166.059 14.6911 167.728 16.0705C168.028 16.3213 168.092 16.7497 167.857 17.0632L166.231 19.2263C165.995 19.5398 165.546 19.6025 165.214 19.383C163.674 18.3903 162.112 17.9619 160.604 17.9619C158.871 17.9619 158.058 18.5157 158.058 19.383C158.058 20.01 158.593 20.4594 160.186 20.8042L163.299 21.5252C167.161 22.4239 168.541 24.1585 168.541 26.6142C168.541 30.1776 165.674 32.4556 160.753 32.4556C157.48 32.4556 154.634 31.4524 152.826 29.7491C152.538 29.4879 152.516 29.0803 152.741 28.7982Z" fill="#012D26"/>
<path d="M130.255 28.1814V31.2954C130.255 31.6611 129.955 31.9537 129.581 31.9537H127.773C125.783 31.9537 124.703 31.3058 124.382 29.8011C124.35 29.6548 124.146 29.613 124.061 29.7384C123.098 31.3163 121.108 32.3299 118.391 32.3299C114.422 32.3299 111.908 30.1877 111.908 26.8647C111.908 23.479 114.529 21.3995 119.557 21.3995H123.665V20.8771C123.665 18.9439 122.67 18.0452 120.584 18.0452C119.033 18.0452 117.589 18.5781 116.401 19.5708C116.123 19.8007 115.706 19.8112 115.449 19.5499L113.449 17.4914C113.203 17.2406 113.192 16.833 113.438 16.5927C115.203 14.8581 117.91 13.834 120.98 13.834C125.837 13.834 128.522 16.3942 128.522 20.6785V27.4185C128.522 28.0037 128.704 28.1814 129.196 28.1814H130.255ZM123.665 25.0674V24.5135H120.049C117.813 24.5135 116.861 25.2032 116.861 26.593C116.861 27.941 117.781 28.7039 119.589 28.7039C122.071 28.7039 123.665 27.2514 123.665 25.0674Z" fill="#012D26"/>
</svg>
