<svg width="398" height="398" viewBox="0 0 398 398" fill="none" xmlns="http://www.w3.org/2000/svg">
<circle opacity="0.2" cx="199" cy="199" r="96" fill="#54EDCB"/>
<circle opacity="0.2" cx="199" cy="199" r="126" fill="#54EDCB"/>
<circle opacity="0.2" cx="199" cy="199" r="158" fill="#54EDCB"/>
<circle opacity="0.2" cx="199" cy="199" r="199" fill="#54EDCB"/>
<circle cx="199" cy="199" r="73" fill="white"/>
<path d="M202.648 166.006V194.402C202.648 195.522 201.711 196.414 200.586 196.414H196.461C195.312 196.414 194.398 195.499 194.398 194.402V175.106C194.398 173.665 192.898 172.682 191.539 173.231L165.289 183.748C164.516 184.068 164 184.799 164 185.623V231.988C164 233.108 164.938 234 166.062 234H192.312C193.461 234 194.375 233.085 194.375 231.988V214.269C194.375 213.149 195.312 212.258 196.438 212.258H200.562C201.711 212.258 202.625 213.172 202.625 214.269V231.988C202.625 233.108 203.562 234 204.688 234H230.938C232.086 234 233 233.085 233 231.988V176.546C233 175.723 232.484 174.991 231.711 174.671L205.461 164.154C204.148 163.606 202.648 164.589 202.648 166.006Z" fill="#00D0AF"/>
</svg>
